<svg xmlns="http://www.w3.org/2000/svg" width="29" height="29">
    <style>
        .layer {
            fill: #000;
        }
        @media (prefers-color-scheme: dark) {
            .layer {
                fill: #fff;
            }
        }
    </style>
    <g class="layer">
        <g fill-rule="evenodd">
            <path d="M14.77 27.57c3.11-11.19 3.02-11.24 5.26-19.21l.54.31c.3.17.54.03.54-.31v-3.8c.59-2.1 1.06-3.73 1.2-4.22h2.43l4.05 3.77-2.66 2.31 2.01 2.19L14.9 27.57c-.06.11-.15.09-.13 0z"/>
            <path d="M16.21 3.46c.12 0 .22.06.22.15v1.95c0 .08-.09.15-.21.15h-3.27c-.12 0-.22-.07-.22-.16V3.6c0-.08.1-.14.22-.14h3.27-.01zm4.04-2.16-3.6 2.09c.04.06.07.14.07.22v1.95c0 .1-.04.19-.11.26l3.63 2.11c.24.15.45.03.45-.26V1.56c0-.29-.21-.41-.45-.26h.01zm-7.81 4.26V3.61c0-.08.02-.16.06-.22L8.91 1.3c-.25-.15-.45-.03-.45.26v6.11c0 .29.2.4.45.26l3.63-2.11a.449.449 0 0 1-.1-.27v.01z"/>
            <path d="M14.25 27.57h.13c-3.11-11.19-3.02-11.24-5.27-19.21l-.54.31c-.29.17-.53.03-.53-.31v-3.8C7.44 2.45 6.97.83 6.83.34H4.4L.36 4.11l2.66 2.31-2.01 2.19 13.24 18.96z"/>
            <ellipse cx="14.47" cy="8.79" rx=".98" ry=".99"/>
            <ellipse cx="14.47" cy="14.66" rx=".98" ry=".99"/>
            <ellipse cx="14.47" cy="20.54" rx=".98" ry=".99"/>
        </g>
    </g>
</svg>
